<?xml version="1.0" encoding="UTF-8"?>
<svg version="1.1" xmlns="http://www.w3.org/2000/svg" width="300" height="94">
<path d="M0 0 C1.65 0 3.3 0 5 0 C5 19.8 5 39.6 5 60 C4.01 60.33 3.02 60.66 2 61 C-0.2636564 59.59554165 -2.0208685 57.8032087 -4 56 C-3.855625 56.88042969 -3.71125 57.76085938 -3.5625 58.66796875 C-3.376875 59.82941406 -3.19125 60.99085937 -3 62.1875 C-2.814375 63.33605469 -2.62875 64.48460938 -2.4375 65.66796875 C-2.06510523 68.50415393 -1.91403979 71.14719564 -2 74 C-4.60582371 74.93065133 -5.64198224 75.14917407 -8.25 74.0625 C-8.8275 73.711875 -9.405 73.36125 -10 73 C-7.94388244 75.99397838 -7.94388244 75.99397838 -5 78 C-4.59367909 79.98645776 -4.27050453 81.99053778 -4 84 C-3.79375 84.928125 -3.5875 85.85625 -3.375 86.8125 C-3.25125 87.534375 -3.1275 88.25625 -3 89 C-3.33 89.33 -3.66 89.66 -4 90 C-17.48601833 89.77142342 -28.90799366 82.82328123 -38.37109375 73.71875 C-47.86241907 63.8689674 -51.77490016 52.80199594 -52.3125 39.25 C-52.12780042 30.38441999 -49.93624299 21.32361055 -47 13 C-43.55815706 14.14728098 -42.91992283 15.03284654 -41 18 C-40.67 18.99 -40.34 19.98 -40 21 C-39.34 21.99 -38.68 22.98 -38 24 C-36 27 -36 27 -35 30 C-33.83995512 32.07806602 -32.64898171 34.13899456 -31.4375 36.1875 C-30.47650391 37.81751953 -30.47650391 37.81751953 -29.49609375 39.48046875 C-29.00238281 40.31191406 -28.50867188 41.14335938 -28 42 C-27.84144531 40.93523438 -27.68289062 39.87046875 -27.51953125 38.7734375 C-25.97653349 28.98373458 -23.59228783 20.25932937 -20 11 C-19.70222656 9.90042969 -19.40445313 8.80085937 -19.09765625 7.66796875 C-18.73542969 6.78753906 -18.37320313 5.90710938 -18 5 C-16.68 4.67 -15.36 4.34 -14 4 C-12.68 10.93 -11.36 17.86 -10 25 C-8.948125 22.3703125 -8.948125 22.3703125 -7.875 19.6875 C-5.63687022 14.26582356 -3.01151673 9.23139543 -0.0390625 4.1796875 C0.30382813 3.46039063 0.64671875 2.74109375 1 2 C0.505 1.01 0.505 1.01 0 0 Z M-27 44 C-26 46 -26 46 -26 46 Z " fill="#E98B88" transform="translate(60,0)"/>
<path d="M0 0 C0.66 0 1.32 0 2 0 C2 1.32 2 2.64 2 4 C2.66 4 3.32 4 4 4 C5.7143618 5.95927063 7.38405168 7.95880212 9 10 C9.86625 9.7215625 9.86625 9.7215625 10.75 9.4375 C13.20692525 8.95976454 14.64397534 9.24270636 17 10 C17 10.99 17 11.98 17 13 C17.66 13 18.32 13 19 13 C21.60900601 19.64558134 22.6143354 25.88515313 23 33 C19.28125 34.1171875 19.28125 34.1171875 16.75 33.0625 C15.88375 32.5365625 15.88375 32.5365625 15 32 C17.05611756 34.99397838 17.05611756 34.99397838 20 37 C20.40632091 38.98645776 20.72949547 40.99053778 21 43 C21.20625 43.928125 21.4125 44.85625 21.625 45.8125 C21.74875 46.534375 21.8725 47.25625 22 48 C21.67 48.33 21.34 48.66 21 49 C7.55418395 48.77210481 -4.35563817 41.87169613 -13.51171875 32.40234375 C-19.36675938 26.0141911 -21.13802859 23.55777278 -21 15 C-21.66 15 -22.32 15 -23 15 C-23 13.68 -23 12.36 -23 11 C-22.34 11 -21.68 11 -21 11 C-20.34 12.65 -19.68 14.3 -19 16 C-9.44775062 17.85900995 -9.44775062 17.85900995 -0.4375 15.5 C0.036875 15.005 0.51125 14.51 1 14 C0.83628906 13.44828125 0.67257813 12.8965625 0.50390625 12.328125 C-0.05760414 9.73385993 -0.09739008 7.40164589 -0.0625 4.75 C-0.05347656 3.85796875 -0.04445313 2.9659375 -0.03515625 2.046875 C-0.02355469 1.37140625 -0.01195313 0.6959375 0 0 Z " fill="#CF2785" transform="translate(35,41)"/>
<path d="M0 0 C2.31 0 4.62 0 7 0 C7 5.61 7 11.22 7 17 C10.96 17.33 14.92 17.66 19 18 C19.4125 16.700625 19.825 15.40125 20.25 14.0625 C21.85533149 9.22346248 23.84913976 4.61834458 26 0 C27.98 0 29.96 0 32 0 C35.39667777 6.54278095 38.34675978 13.12122906 41 20 C41.33 13.4 41.66 6.8 42 0 C48 0 48 0 50.30078125 1.8984375 C50.96464844 2.71570312 51.62851563 3.53296875 52.3125 4.375 C52.98925781 5.18710937 53.66601562 5.99921875 54.36328125 6.8359375 C56 9 56 9 57 11 C57.33 7.7 57.66 4.4 58 1 C57.34 0.67 56.68 0.34 56 0 C58.64 0 61.28 0 64 0 C64 7.92 64 15.84 64 24 C58 24 58 24 55.6640625 21.8125 C54.65472656 20.4203125 54.65472656 20.4203125 53.625 19 C52.93664062 18.071875 52.24828125 17.14375 51.5390625 16.1875 C50.77722656 15.1046875 50.77722656 15.1046875 50 14 C49.67 17.3 49.34 20.6 49 24 C44.02936879 24.91297308 39.97063121 24.91297308 35 24 C34.67 22.35 34.34 20.7 34 19 C32.54052295 19.06006078 31.08220728 19.1488689 29.625 19.25 C28.81289062 19.29640625 28.00078125 19.3428125 27.1640625 19.390625 C26.44992188 19.59171875 25.73578125 19.7928125 25 20 C24.34 21.32 23.68 22.64 23 24 C15.41 24 7.82 24 0 24 C0 16.08 0 8.16 0 0 Z M29 10 C28.67 10.99 28.34 11.98 28 13 C28.99 12.67 29.98 12.34 31 12 C30.34 11.34 29.68 10.68 29 10 Z " fill="#CE5870" transform="translate(183,38)"/>
<path d="M0 0 C3 2.4375 3 2.4375 5 5 C5 5.99 5 6.98 5 8 C5.66 8 6.32 8 7 8 C7.04125 7.443125 7.0825 6.88625 7.125 6.3125 C8.44087588 2.83482802 10.93668745 0.92530626 14 -1 C17.93451353 -2.33940886 19.64793897 -2.11533034 23.625 -0.8125 C28.99691834 2.07241911 28.99691834 2.07241911 31 5 C32.21808337 9.40190128 32.32222602 12.93262632 31 17.3125 C28.49663951 20.67639066 25.99264842 22.77149279 22 24 C16.66836847 24.29214419 12.301425 23.2586553 8 20 C7.34 19.34 6.68 18.68 6 18 C6.33 17.01 6.66 16.02 7 15 C6.34 15 5.68 15 5 15 C4.814375 15.7425 4.62875 16.485 4.4375 17.25 C2.47913164 20.99644382 -0.05942688 22.73365325 -4 24 C-8.62233048 24.33185962 -11.99204576 23.62192921 -15.9375 21.1875 C-19.52614784 17.38135835 -20.58615601 14.47989037 -20.4453125 9.09765625 C-19.59668468 5.10017258 -17.06983731 2.55585079 -14 0 C-9.11352463 -2.65569314 -4.96338073 -2.18103383 0 0 Z M-11.875 6.125 C-13.52854531 8.88090884 -13.39365568 10.85075452 -13 14 C-11.53748695 16.12064392 -10.42267342 16.82274986 -8.0625 17.8125 C-5.26731601 18.06660764 -4.17794085 17.80243381 -2 16 C-0.98631707 12.35074147 -0.52898799 10.08055696 -2.0625 6.5625 C-3.98282583 4.74266791 -3.98282583 4.74266791 -7 4.5625 C-9.92733832 4.79262143 -9.92733832 4.79262143 -11.875 6.125 Z M14.125 6.125 C12.47145469 8.88090884 12.60634432 10.85075452 13 14 C14.43306172 16.0779395 15.63544321 16.81772161 17.875 17.9375 C20.21838523 18.18235698 20.21838523 18.18235698 22.8125 16.5 C25.40744999 14.09882183 25.40744999 14.09882183 24.9375 10.375 C24.28663912 6.95860095 24.28663912 6.95860095 22 5 C18.89652746 4.66984335 16.84218824 4.49468706 14.125 6.125 Z " fill="#CC536B" transform="translate(126,39)"/>
<path d="M0 0 C2.08379509 3.84700632 3.49686624 7.90054429 5 12 C5.20496094 11.28972656 5.40992187 10.57945313 5.62109375 9.84765625 C5.89050781 8.92855469 6.15992187 8.00945313 6.4375 7.0625 C6.70433594 6.14597656 6.97117187 5.22945312 7.24609375 4.28515625 C8 2 8 2 9 1 C11.33297433 0.95907063 13.66705225 0.95758277 16 1 C16.495 1.99 16.495 1.99 17 3 C16.34 3 15.68 3 15 3 C15.495 4.485 15.495 4.485 16 6 C15.34 6 14.68 6 14 6 C13.82984375 6.68964844 13.6596875 7.37929688 13.484375 8.08984375 C11.86290628 14.37734748 9.84015761 20.16109729 7 26 C4.64453125 25.81640625 4.64453125 25.81640625 2 25 C0.63671875 22.71484375 0.63671875 22.71484375 -0.3125 19.9375 C-0.80169922 18.55884766 -0.80169922 18.55884766 -1.30078125 17.15234375 C-1.53152344 16.44207031 -1.76226562 15.73179688 -2 15 C-2.45439453 16.06541016 -2.45439453 16.06541016 -2.91796875 17.15234375 C-3.33691406 18.07144531 -3.75585938 18.99054687 -4.1875 19.9375 C-4.59355469 20.85402344 -4.99960938 21.77054688 -5.41796875 22.71484375 C-7 25 -7 25 -9.67578125 25.81640625 C-10.44277344 25.87699219 -11.20976563 25.93757813 -12 26 C-20 9.14893617 -20 9.14893617 -20 1 C-18.02 1 -16.04 1 -14 1 C-12.68 4.3 -11.36 7.6 -10 11 C-7.8481577 8.03039656 -7.8481577 8.03039656 -6.6875 4.375 C-5 1 -5 1 -2.3125 0.0625 C-1.1678125 0.0315625 -1.1678125 0.0315625 0 0 Z " fill="#CE5971" transform="translate(91,37)"/>
<path d="M0 0 C2.206875 -0.061875 4.41375 -0.12375 6.6875 -0.1875 C8.54955078 -0.23970703 8.54955078 -0.23970703 10.44921875 -0.29296875 C15.00855123 0.0832138 17.28103338 1.61336693 20.7578125 4.41796875 C23.16332265 7.48159017 23.10330187 11.22302545 23 15 C21.81252727 18.56241818 20.8301583 20.3556753 17.87109375 22.65234375 C14.24823033 24.35287148 11.09184231 24.33207368 7.1875 24.1875 C4.815625 24.125625 2.44375 24.06375 0 24 C0 16.08 0 8.16 0 0 Z M7 6 C7 9.96 7 13.92 7 18 C12.50694157 18.51449576 12.50694157 18.51449576 14.875 16.875 C16.54663625 14.08893958 16.46376624 12.18011138 16 9 C14.40383995 6.99034226 14.40383995 6.99034226 12 6 C10.35 6 8.7 6 7 6 Z " fill="#C8445F" transform="translate(249,38)"/>
<path d="M0 0 C14.19642857 -0.53571429 14.19642857 -0.53571429 17.6875 1.6875 C20.96914068 4.96914068 22.74577516 7.2930618 23.4375 11.9375 C22.78091773 16.53357588 20.57499929 19.41757147 17.34375 22.6640625 C14.0341603 24.55052863 10.94026942 24.32248072 7.25 24.1875 C4.8575 24.125625 2.465 24.06375 0 24 C0 16.08 0 8.16 0 0 Z M7 6 C7 9.96 7 13.92 7 18 C12.6552653 18.64261226 12.6552653 18.64261226 14.9375 16.375 C16.37504343 13.16166762 16.01373739 11.33085144 15 8 C11.90754997 5.53774984 11.90754997 5.53774984 7 6 Z " fill="#CA4963" transform="translate(159,38)"/>
<path d="M0 0 C4.03700574 3.73423031 4.33165876 7.35116561 4.5625 12.625 C4.62890625 15.9765625 4.62890625 15.9765625 4 19 C0.35803599 22.76147578 -2.64295039 23.80875653 -7.71875 24.1640625 C-11.73000539 23.8755818 -13.79674226 22.43447588 -17 20 C-19.87628393 16.65979931 -20.65681597 13.496373 -20.48046875 9.0625 C-19.55776913 5.10164311 -17.06095579 2.54845631 -14 0 C-9.15339987 -2.63402181 -4.90000393 -2.3040444 0 0 Z M-11.875 6.125 C-13.52854531 8.88090884 -13.39365568 10.85075452 -13 14 C-11.53748695 16.12064392 -10.42267342 16.82274986 -8.0625 17.8125 C-5.26731601 18.06660764 -4.17794085 17.80243381 -2 16 C-0.98631707 12.35074147 -0.52898799 10.08055696 -2.0625 6.5625 C-3.98282583 4.74266791 -3.98282583 4.74266791 -7 4.5625 C-9.92733832 4.79262143 -9.92733832 4.79262143 -11.875 6.125 Z " fill="#CB4F69" transform="translate(126,39)"/>
<path d="M0 0 C2.64 0 5.28 0 8 0 C8 7.92 8 15.84 8 24 C2 24 2 24 -0.30078125 21.91796875 C-0.96464844 21.01691406 -1.62851563 20.11585937 -2.3125 19.1875 C-2.98925781 18.29417969 -3.66601562 17.40085937 -4.36328125 16.48046875 C-6 14 -6 14 -7 11 C-7.33 14.96 -7.66 18.92 -8 23 C-9.32 23 -10.64 23 -12 23 C-12 15.74 -12 8.48 -12 1 C-7 1 -7 1 -4.76171875 3.1875 C-4.07722656 4.115625 -3.39273438 5.04375 -2.6875 6 C-1.99011719 6.928125 -1.29273438 7.85625 -0.57421875 8.8125 C-0.05472656 9.534375 0.46476563 10.25625 1 11 C1.33 7.7 1.66 4.4 2 1 C1.34 0.67 0.68 0.34 0 0 Z " fill="#C53956" transform="translate(239,38)"/>
<path d="M0 0 C3.0625 1.5 3.0625 1.5 5 3 C4.67 4.32 4.34 5.64 4 7 C-0.00200378 8.60080151 -3.04556236 7.29279692 -7 6 C-7 6.66 -7 7.32 -7 8 C-5.7625 8.268125 -4.525 8.53625 -3.25 8.8125 C2.83893557 10.38871382 2.83893557 10.38871382 5 13 C5.56619391 16.89258312 5.62346631 19.05233121 3.4375 22.375 C0.16112946 24.55924702 -2.06387542 24.93328602 -6 25 C-8.52513964 24.22378976 -10.63045054 23.20895381 -13 22 C-13 18 -13 18 -12 16 C-11.1646875 16.2165625 -11.1646875 16.2165625 -10.3125 16.4375 C-7.87832241 17.02959725 -5.47364935 17.59886767 -3 18 C-2.67 17.67 -2.34 17.34 -2 17 C-2.71027344 16.73445313 -3.42054688 16.46890625 -4.15234375 16.1953125 C-5.07144531 15.84210937 -5.99054688 15.48890625 -6.9375 15.125 C-7.85402344 14.77695312 -8.77054687 14.42890625 -9.71484375 14.0703125 C-12 13 -12 13 -13 11 C-13.57178372 3.79552517 -13.57178372 3.79552517 -11.5625 1 C-7.69615645 -0.508817 -4.09423794 -0.56823943 0 0 Z " fill="#CD566E" transform="translate(286,38)"/>
<path d="M0 0 C2.26171875 -0.00390625 2.26171875 -0.00390625 5 1 C6.69467502 3.50910998 7.72362622 6.24777329 8.8125 9.0625 C9.12380859 9.82111328 9.43511719 10.57972656 9.75585938 11.36132812 C10.52135451 13.233847 11.26300003 15.11608366 12 17 C12 11.39 12 5.78 12 0 C13.98 0 15.96 0 18 0 C18 4.62 18 9.24 18 14 C20.97 14.33 23.94 14.66 27 15 C27 16.32 27 17.64 27 19 C20.4 19 13.8 19 7 19 C6.67 17.68 6.34 16.36 6 15 C3.36 15 0.72 15 -2 15 C-2.33 16.32 -2.66 17.64 -3 19 C-4.32 19 -5.64 19 -7 19 C-6.4253379 14.21357393 -5.01754357 10.46211213 -2.9375 6.125 C-2.38964844 4.97257812 -1.84179688 3.82015625 -1.27734375 2.6328125 C-0.85582031 1.76398438 -0.43429688 0.89515625 0 0 Z M2 7 C1.67 7.99 1.34 8.98 1 10 C1.99 9.67 2.98 9.34 4 9 C3.34 8.34 2.68 7.68 2 7 Z " fill="#DB8596" transform="translate(174,72)"/>
<path d="M0 0 C-0.01571045 1.18758911 -0.01571045 1.18758911 -0.03173828 2.39916992 C-0.07337846 5.99524751 -0.09935193 9.59127428 -0.125 13.1875 C-0.14175781 14.43337891 -0.15851562 15.67925781 -0.17578125 16.96289062 C-0.18544922 18.7659668 -0.18544922 18.7659668 -0.1953125 20.60546875 C-0.21102295 22.26292114 -0.21102295 22.26292114 -0.22705078 23.95385742 C0.10509466 28.40996351 1.16524759 31.09369738 4.1875 34.375 C7.90957871 36.52553436 9.91394147 36.07933621 14 35 C14.66 34.34 15.32 33.68 16 33 C16.99 33 17.98 33 19 33 C17.63016497 36.16115776 17.0109362 36.9927092 14 39 C11.2578125 39.265625 11.2578125 39.265625 8.125 39.25 C6.58199219 39.25773437 6.58199219 39.25773437 5.0078125 39.265625 C1.91893401 38.99284093 -0.26375328 38.44947124 -3 37 C-3.8125 34.375 -3.8125 34.375 -4 32 C-4.66 32 -5.32 32 -6 32 C-6 33.32 -6 34.64 -6 36 C-5.34 36 -4.68 36 -4 36 C-4 37.98 -4 39.96 -4 42 C-8.70213692 36.65666259 -9.27847541 30.39104898 -9.25 23.5 C-9.25515625 22.2521875 -9.2603125 21.004375 -9.265625 19.71875 C-8.98592555 15.80295775 -8.20634176 12.7147667 -7 9 C-6.34 9 -5.68 9 -5 9 C-5.268125 8.443125 -5.53625 7.88625 -5.8125 7.3125 C-5.874375 6.549375 -5.93625 5.78625 -6 5 C-1.68181818 0 -1.68181818 0 0 0 Z " fill="#E67A83" transform="translate(18,20)"/>
<path d="M0 0 C1.65 0 3.3 0 5 0 C5 19.8 5 39.6 5 60 C4.67 60 4.34 60 4 60 C4 52.08 4 44.16 4 36 C2.68 35.34 1.36 34.68 0 34 C-2.46710903 29.33990517 -3.46068625 25.28527476 -4 20 C-4.99 22.475 -4.99 22.475 -6 25 C-6.66 25 -7.32 25 -8 25 C-8.33 25.99 -8.66 26.98 -9 28 C-8.55151781 21.6571804 -6.97006705 17.23411227 -3.9375 11.6875 C-1.00647755 6.63485945 -1.00647755 6.63485945 0 1 C0 0.67 0 0.34 0 0 Z " fill="#F1B5A1" transform="translate(60,0)"/>
<path d="M0 0 C0.66 0 1.32 0 2 0 C2 1.32 2 2.64 2 4 C2.66 4 3.32 4 4 4 C5.7143618 5.95927063 7.38405168 7.95880212 9 10 C9.86625 9.7215625 9.86625 9.7215625 10.75 9.4375 C13.20692525 8.95976454 14.64397534 9.24270636 17 10 C17 10.99 17 11.98 17 13 C17.66 13 18.32 13 19 13 C20.85776765 16.13498292 21.20140476 18.37471432 21 22 C19 19 19 19 18 17 C14.9600352 16.30662208 14.9600352 16.30662208 11.4375 15.875 C9.64119141 15.62363281 9.64119141 15.62363281 7.80859375 15.3671875 C6.88175781 15.24601562 5.95492187 15.12484375 5 15 C4.88527344 15.61488281 4.77054688 16.22976562 4.65234375 16.86328125 C3.68931372 20.01763711 1.63223492 21.1381753 -1 23 C-4.44074147 24.72037073 -8.23010116 24.38481666 -12 24 C-14.9375 22.5625 -14.9375 22.5625 -17 21 C-17.66 20.67 -18.32 20.34 -19 20 C-19 21.65 -19 23.3 -19 25 C-21 23 -21 23 -21.1953125 21.0546875 C-21.09765625 18.02734375 -21.09765625 18.02734375 -21 15 C-21.66 15 -22.32 15 -23 15 C-23 13.68 -23 12.36 -23 11 C-22.34 11 -21.68 11 -21 11 C-20.34 12.65 -19.68 14.3 -19 16 C-9.44775062 17.85900995 -9.44775062 17.85900995 -0.4375 15.5 C0.036875 15.005 0.51125 14.51 1 14 C0.83628906 13.44828125 0.67257813 12.8965625 0.50390625 12.328125 C-0.05760414 9.73385993 -0.09739008 7.40164589 -0.0625 4.75 C-0.05347656 3.85796875 -0.04445313 2.9659375 -0.03515625 2.046875 C-0.02355469 1.37140625 -0.01195313 0.6959375 0 0 Z " fill="#DD3873" transform="translate(35,41)"/>
<path d="M0 0 C0.75410156 0.04833984 1.50820312 0.09667969 2.28515625 0.14648438 C3.45111328 0.2305957 3.45111328 0.2305957 4.640625 0.31640625 C5.82978516 0.3947168 5.82978516 0.3947168 7.04296875 0.47460938 C8.99256497 0.60379949 10.94165386 0.7406059 12.890625 0.87890625 C12.890625 2.52890625 12.890625 4.17890625 12.890625 5.87890625 C11.240625 5.87890625 9.590625 5.87890625 7.890625 5.87890625 C7.890625 10.49890625 7.890625 15.11890625 7.890625 19.87890625 C6.240625 19.87890625 4.590625 19.87890625 2.890625 19.87890625 C2.890625 15.25890625 2.890625 10.63890625 2.890625 5.87890625 C1.240625 5.87890625 -0.409375 5.87890625 -2.109375 5.87890625 C-2.439375 5.54890625 -2.769375 5.21890625 -3.109375 4.87890625 C-3.439375 9.82890625 -3.769375 14.77890625 -4.109375 19.87890625 C-5.429375 19.87890625 -6.749375 19.87890625 -8.109375 19.87890625 C-8.109375 13.60890625 -8.109375 7.33890625 -8.109375 0.87890625 C-4.86206538 0.06707885 -3.17226012 -0.21629046 0 0 Z " fill="#CC526B" transform="translate(154.109375,71.12109375)"/>
<path d="M0 0 C2.97 0.495 2.97 0.495 6 1 C6 7.27 6 13.54 6 20 C4.35 20 2.7 20 1 20 C1 17.69 1 15.38 1 13 C-0.98 13.33 -2.96 13.66 -5 14 C-5 15.98 -5 17.96 -5 20 C-6.65 20 -8.3 20 -10 20 C-10 13.73 -10 7.46 -10 1 C-8.35 1 -6.7 1 -5 1 C-5 2.98 -5 4.96 -5 7 C-2.03 7.495 -2.03 7.495 1 8 C1 6.02 1 4.04 1 2 C0.34 1.67 -0.32 1.34 -1 1 C-0.67 0.67 -0.34 0.34 0 0 Z " fill="#D16279" transform="translate(87,71)"/>
<path d="M0 0 C3.71415501 0.87471042 5.0939134 2.34985958 7.15625 5.5078125 C7.82427492 8.51141328 8.08261982 11.43542592 8.15625 14.5078125 C4.91801108 17.19037729 2.28934889 19.29969229 -1.90625 20.0703125 C-5.63671279 19.35596856 -7.88277 17.8490525 -10.84375 15.5078125 C-12.41830739 12.35869771 -12.19174118 9.98772434 -11.84375 6.5078125 C-8.77200904 1.0579495 -6.04784185 -0.46366788 0 0 Z M-6.84375 6.5078125 C-7.17708333 9.5078125 -7.17708333 9.5078125 -6.84375 12.5078125 C-4.95715125 14.81443849 -4.95715125 14.81443849 -1.84375 14.8203125 C-0.85375 14.7171875 0.13625 14.6140625 1.15625 14.5078125 C3.45262779 11.74885615 3.45262779 11.74885615 2.90625 8.9453125 C2.31816948 6.35780683 2.31816948 6.35780683 0.15625 4.5078125 C-3.8112009 4.07311722 -3.8112009 4.07311722 -6.84375 6.5078125 Z " fill="#D3687E" transform="translate(105.84375,71.4921875)"/>
<path d="M0 0 C0.66 0 1.32 0 2 0 C2.85332335 3.91257834 3.67882606 7.83055898 4.5 11.75 C4.73847656 12.84183594 4.97695313 13.93367188 5.22265625 15.05859375 C6.75831514 22.47363241 7.30798054 29.43394482 7 37 C2.125 33.25 2.125 33.25 1 31 C0.92854375 28.66766802 0.91598366 26.33332714 0.9375 24 C0.94652344 22.741875 0.95554687 21.48375 0.96484375 20.1875 C0.97644531 19.135625 0.98804688 18.08375 1 17 C1 16.34 1 15.68 1 15 C0.21625 15.495 -0.5675 15.99 -1.375 16.5 C-4 18 -4 18 -6 18 C-6.66 18.99 -7.32 19.98 -8 21 C-7.51328962 13.86158105 -5.13633634 5.13633634 0 0 Z " fill="#F5C5A6" transform="translate(44,4)"/>
<path d="M0 0 C2.1270011 0.25464098 4.25162215 0.52922942 6.375 0.8125 C8.15003906 1.03873047 8.15003906 1.03873047 9.9609375 1.26953125 C13 2 13 2 15 5 C15 5.99 15 6.98 15 8 C15.66 8 16.32 8 17 8 C17.33 11.63 17.66 15.26 18 19 C14 20 14 20 11.625 19 C5.93479712 14.66460733 1.28590596 8.85771787 -1 2 C-0.67 1.34 -0.34 0.68 0 0 Z " fill="#C82C74" transform="translate(40,55)"/>
<path d="M0 0 C1.09054688 0.02320312 2.18109375 0.04640625 3.3046875 0.0703125 C4.40039062 0.08835937 5.49609375 0.10640625 6.625 0.125 C7.46804687 0.14820312 8.31109375 0.17140625 9.1796875 0.1953125 C8.5196875 1.8453125 7.8596875 3.4953125 7.1796875 5.1953125 C4.5396875 4.8653125 1.8996875 4.5353125 -0.8203125 4.1953125 C-0.8203125 4.8553125 -0.8203125 5.5153125 -0.8203125 6.1953125 C2.4796875 6.8553125 5.7796875 7.5153125 9.1796875 8.1953125 C9.4673619 11.93507974 9.63845259 14.39746017 7.7421875 17.6953125 C4.33883708 19.68751762 2.03884051 19.35309621 -1.796875 18.9453125 C-3.8203125 18.1953125 -3.8203125 18.1953125 -5.09375 16.1328125 C-5.33351563 15.4934375 -5.57328125 14.8540625 -5.8203125 14.1953125 C-4.8303125 13.5353125 -3.8403125 12.8753125 -2.8203125 12.1953125 C0.3671875 13.0703125 0.3671875 13.0703125 3.1796875 14.1953125 C3.5096875 13.5353125 3.8396875 12.8753125 4.1796875 12.1953125 C3.2515625 12.0715625 2.3234375 11.9478125 1.3671875 11.8203125 C-1.8203125 11.1953125 -1.8203125 11.1953125 -4.8203125 9.1953125 C-5.1328125 5.6953125 -5.1328125 5.6953125 -4.8203125 2.1953125 C-2.8203125 0.1953125 -2.8203125 0.1953125 0 0 Z " fill="#D46B80" transform="translate(119.8203125,71.8046875)"/>
<path d="M0 0 C1.6254308 0.14095064 3.25034051 0.28792087 4.875 0.4375 C5.77992187 0.51871094 6.68484375 0.59992187 7.6171875 0.68359375 C10 1 10 1 12 2 C12 8.6 12 15.2 12 22 C9.525 21.01 9.525 21.01 7 20 C5.6875 16.875 5.6875 16.875 5 14 C4.34 14 3.68 14 3 14 C-0.66641647 9.62850344 -0.31749488 5.39741292 0 0 Z " fill="#CB2670" transform="translate(52,39)"/>
<path d="M0 0 C9.01875902 -0.48100048 9.01875902 -0.48100048 13.1875 1.5625 C15 4 15 4 15 7.625 C14 11 14 11 11 13 C8.66800612 13.07905064 6.33167378 13.08798769 4 13 C4 14.98 4 16.96 4 19 C2.68 19 1.36 19 0 19 C0 12.73 0 6.46 0 0 Z M4 5 C4 6.32 4 7.64 4 9 C5.65 9 7.3 9 9 9 C9.33 7.68 9.66 6.36 10 5 C8.02 5 6.04 5 4 5 Z " fill="#D05D75" transform="translate(130,72)"/>
<path d="M0 0 C1.65 0 3.3 0 5 0 C5 5.94 5 11.88 5 18 C8.63 18 12.26 18 16 18 C16 19.65 16 21.3 16 23 C10.72 23 5.44 23 0 23 C0 15.41 0 7.82 0 0 Z " fill="#C22D4C" transform="translate(183,39)"/>
<path d="M0 0 C0.33 0 0.66 0 1 0 C1.08636719 0.88042969 1.17273437 1.76085937 1.26171875 2.66796875 C2.30728826 11.45877171 2.30728826 11.45877171 8 18 C8.3125 20.8125 8.3125 20.8125 8 23 C-0.57142857 23.28571429 -0.57142857 23.28571429 -4 21 C-4.33 22.32 -4.66 23.64 -5 25 C-5.02698422 22.56242587 -5.04683099 20.12515085 -5.0625 17.6875 C-5.07087891 16.99720703 -5.07925781 16.30691406 -5.08789062 15.59570312 C-5.10307906 12.4516975 -5.00193327 10.00579981 -4 7 C-3.34 6.67 -2.68 6.34 -2 6 C-1.27306096 4.02111039 -0.60183749 2.02045442 0 0 Z " fill="#E88886" transform="translate(56,18)"/>
<path d="M0 0 C3.44184294 1.14728098 4.08007717 2.03284654 6 5 C6.77772405 7.33317216 7.42415568 9.61435923 8 12 C7.01 12 6.02 12 5 12 C4.67 10.68 4.34 9.36 4 8 C1.91666921 9.74934898 1.91666921 9.74934898 0 12 C0 13.32 0 14.64 0 16 C-0.66 16.33 -1.32 16.66 -2 17 C-2.46806645 19.33744294 -2.82669794 21.69739079 -3.125 24.0625 C-3.29257813 25.35285156 -3.46015625 26.64320312 -3.6328125 27.97265625 C-3.75398437 28.97167969 -3.87515625 29.97070312 -4 31 C-4.33 31 -4.66 31 -5 31 C-5.67289531 20.40812938 -3.51656604 9.96870026 0 0 Z " fill="#F2BDB0" transform="translate(13,13)"/>
<path d="M0 0 C1.65 0 3.3 0 5 0 C4.67 2.97 4.34 5.94 4 9 C6.64 9 9.28 9 12 9 C12 9.33 12 9.66 12 10 C9.36 10 6.72 10 4 10 C4.33 12.97 4.66 15.94 5 19 C3.35 19 1.7 19 0 19 C0 12.73 0 6.46 0 0 Z " fill="#D16379" transform="translate(77,72)"/>
<path d="M0 0 C2.5625 0.9375 2.5625 0.9375 4 3 C4.3169186 6.02952696 4.22894013 8.96654324 4 12 C3.01 12 2.02 12 1 12 C0.01 9.69 -0.98 7.38 -2 5 C-5.49234244 4.90021879 -8.59437148 5.22157062 -12 6 C-12 3 -12 3 -10.77734375 1.3359375 C-7.53943228 -1.09783332 -3.86408765 -0.48126723 0 0 Z " fill="#D7778B" transform="translate(108,72)"/>
<path d="M0 0 C0.99 0 1.98 0 3 0 C4.32229189 2.64458379 4.09677194 4.67761301 4.0625 7.625 C4.05347656 8.62789062 4.04445312 9.63078125 4.03515625 10.6640625 C4.02355469 11.43492188 4.01195312 12.20578125 4 13 C6.64 13.33 9.28 13.66 12 14 C12 14.99 12 15.98 12 17 C8.04 17 4.08 17 0 17 C0 11.39 0 5.78 0 0 Z " fill="#C43451" transform="translate(188,73)"/>
<path d="M0 0 C1.17841928 3.53525784 0.91399027 5.4202048 0 9 C-3.24719263 11.16479509 -3.87794029 11.25134712 -7.5625 10.875 C-8.34753906 10.81054688 -9.13257812 10.74609375 -9.94140625 10.6796875 C-12 10 -12 10 -13.27734375 7.9453125 C-13.51582031 7.30335937 -13.75429687 6.66140625 -14 6 C-13.01 5.34 -12.02 4.68 -11 4 C-7.8125 4.875 -7.8125 4.875 -5 6 C-4.54625 5.195625 -4.0925 4.39125 -3.625 3.5625 C-2 1 -2 1 0 0 Z " fill="#DC899A" transform="translate(128,80)"/>
<path d="M0 0 C2.60623142 0.35219343 4.60789115 0.76473469 6.875 2.125 C8 4 8 4 7.875 7.5625 C7 11 7 11 4 13 C2.68 13 1.36 13 0 13 C0 12.34 0 11.68 0 11 C-0.99 10.34 -1.98 9.68 -3 9 C-1.35 8.67 0.3 8.34 2 8 C2.33 7.01 2.66 6.02 3 5 C1.02 5 -0.96 5 -3 5 C-3 4.34 -3 3.68 -3 3 C-2.01 2.34 -1.02 1.68 0 1 C0 0.67 0 0.34 0 0 Z " fill="#DA8093" transform="translate(137,72)"/>
<path d="M0 0 C1.97265625 0.8671875 1.97265625 0.8671875 4 2 C4.34274406 3.66475686 4.67364302 5.33195323 5 7 C6.26290668 9.14323902 7.6234497 11.1852602 9.0390625 13.23046875 C9.35617188 13.81441406 9.67328125 14.39835937 10 15 C9.67 15.66 9.34 16.32 9 17 C6.1875 16.875 6.1875 16.875 3 16 C-0.77010612 11.09886204 -0.31429926 5.89020103 0 0 Z " fill="#F5C5AB" transform="translate(21,25)"/>
<path d="M0 0 C0.66 0 1.32 0 2 0 C2 1.32 2 2.64 2 4 C2.66 4 3.32 4 4 4 C5.7143618 5.95927063 7.38405168 7.95880212 9 10 C9.5775 9.814375 10.155 9.62875 10.75 9.4375 C13.20692525 8.95976454 14.64397534 9.24270636 17 10 C17 10.99 17 11.98 17 13 C11.54933734 13.09733326 6.37863373 12.94361995 1 12 C-0.26237731 9.47524538 -0.09856404 7.68799534 -0.0625 4.875 C-0.05347656 3.96492188 -0.04445312 3.05484375 -0.03515625 2.1171875 C-0.02355469 1.41851562 -0.01195312 0.71984375 0 0 Z " fill="#DD4571" transform="translate(35,41)"/>
<path d="M0 0 C1.65 0 3.3 0 5 0 C5.29356933 3.05312103 5.42962039 5.95598239 5 9 C2.6875 11.5625 2.6875 11.5625 0 13 C-0.99 13 -1.98 13 -3 13 C-2.67 13.99 -2.34 14.98 -2 16 C-3.32 16.33 -4.64 16.66 -6 17 C-4.63822574 12.17189126 -2.49919083 8.21556115 0.07421875 3.953125 C0.53248047 2.98632812 0.53248047 2.98632812 1 2 C0.67 1.34 0.34 0.68 0 0 Z " fill="#F6C9A9" transform="translate(60,0)"/>
<path d="M0 0 C1.98 0 3.96 0 6 0 C4.68 0.33 3.36 0.66 2 1 C2 8.26 2 15.52 2 23 C3.32 23 4.64 23 6 23 C6 18.71 6 14.42 6 10 C6.66 10.66 7.32 11.32 8 12 C7.9765625 14.8203125 7.9765625 14.8203125 7.625 18.125 C7.45871094 19.76855469 7.45871094 19.76855469 7.2890625 21.4453125 C7.14597656 22.70988281 7.14597656 22.70988281 7 24 C4.69 24.33 2.38 24.66 0 25 C-1.02820502 21.91538494 -1.04582849 20.10314761 -0.87890625 16.89453125 C-0.83056641 15.91162109 -0.78222656 14.92871094 -0.73242188 13.91601562 C-0.67634766 12.89185547 -0.62027344 11.86769531 -0.5625 10.8125 C-0.51029297 9.77673828 -0.45808594 8.74097656 -0.40429688 7.67382812 C-0.27461607 5.11557951 -0.13965022 2.55772062 0 0 Z " fill="#D87B8E" transform="translate(225,38)"/>
<path d="M0 0 C0.33 0.66 0.66 1.32 1 2 C1.66 2 2.32 2 3 2 C3.33 3.65 3.66 5.3 4 7 C6.64 7.66 9.28 8.32 12 9 C12 9.99 12 10.98 12 12 C3.42857143 12.28571429 3.42857143 12.28571429 0 10 C-0.33 11.32 -0.66 12.64 -1 14 C-1.02685938 11.85423363 -1.04633088 9.70837355 -1.0625 7.5625 C-1.07410156 6.36753906 -1.08570313 5.17257813 -1.09765625 3.94140625 C-1 1 -1 1 0 0 Z " fill="#E05B77" transform="translate(52,29)"/>
<path d="M0 0 C0.99 0 1.98 0 3 0 C3 5.61 3 11.22 3 17 C2.01 17 1.02 17 0 17 C0 11.39 0 5.78 0 0 Z " fill="#C22E4C" transform="translate(147,73)"/>
<path d="M0 0 C0.66 0 1.32 0 2 0 C5.40027839 3.50331713 6.54961229 6.15833214 7 11 C5.35 10.67 3.7 10.34 2 10 C2 9.01 2 8.02 2 7 C-0.97 6.505 -0.97 6.505 -4 6 C-4 5.67 -4 5.34 -4 5 C-2.35 5 -0.7 5 1 5 C0.67 3.35 0.34 1.7 0 0 Z " fill="#C02646" transform="translate(178,79)"/>
<path d="M0 0 C0.5775 0.350625 1.155 0.70125 1.75 1.0625 C1.42 1.7225 1.09 2.3825 0.75 3.0625 C2.4 3.0625 4.05 3.0625 5.75 3.0625 C5.75 3.7225 5.75 4.3825 5.75 5.0625 C3.77 5.0625 1.79 5.0625 -0.25 5.0625 C-0.58 3.7425 -0.91 2.4225 -1.25 1.0625 C-2.57 1.0625 -3.89 1.0625 -5.25 1.0625 C-5.25 6.6725 -5.25 12.2825 -5.25 18.0625 C-4.26 18.3925 -3.27 18.7225 -2.25 19.0625 C-3.57 19.0625 -4.89 19.0625 -6.25 19.0625 C-6.25 12.7925 -6.25 6.5225 -6.25 0.0625 C-2.25 -0.9375 -2.25 -0.9375 0 0 Z " fill="#E9B4BF" transform="translate(152.25,71.9375)"/>
<path d="M0 0 C1.6254308 0.14095064 3.25034051 0.28792087 4.875 0.4375 C5.77992187 0.51871094 6.68484375 0.59992187 7.6171875 0.68359375 C10 1 10 1 12 2 C12 3.32 12 4.64 12 6 C4.57142857 5 4.57142857 5 1 4 C1 5.65 1 7.3 1 9 C0.67 9 0.34 9 0 9 C0 6.03 0 3.06 0 0 Z " fill="#DC3B70" transform="translate(52,39)"/>
<path d="M0 0 C2.73780488 2.12940379 3.83247342 3.38573588 4.75 6.75 C4.87375 7.86375 4.87375 7.86375 5 9 C4.01 8.34 3.02 7.68 2 7 C1.01 7.495 1.01 7.495 0 8 C0 7.01 0 6.02 0 5 C-0.66 5 -1.32 5 -2 5 C-2 4.01 -2 3.02 -2 2 C-4.31 2 -6.62 2 -9 2 C-9 1.34 -9 0.68 -9 0 C-5.66274958 -1.11241681 -3.3534598 -1.08987444 0 0 Z " fill="#E15D7A" transform="translate(54,49)"/>
<path d="M0 0 C0.49230769 7.38461538 0.49230769 7.38461538 -2 10.5 C-2.66 10.995 -3.32 11.49 -4 12 C-4.66 11.67 -5.32 11.34 -6 11 C-5.71890887 9.35232753 -5.42481474 7.70686855 -5.125 6.0625 C-4.96257813 5.14597656 -4.80015625 4.22945312 -4.6328125 3.28515625 C-4.42398438 2.53105469 -4.21515625 1.77695313 -4 1 C-2 0 -2 0 0 0 Z " fill="#EEA693" transform="translate(46,4)"/>
<path d="M0 0 C3.96 0 7.92 0 12 0 C11.34 1.65 10.68 3.3 10 5 C7.36 4.67 4.72 4.34 2 4 C2.33 3.34 2.66 2.68 3 2 C1.35 2.66 -0.3 3.32 -2 4 C-1.34 2.68 -0.68 1.36 0 0 Z " fill="#DB8596" transform="translate(117,72)"/>
<path d="M0 0 C1.32 0.33 2.64 0.66 4 1 C4.144375 1.886875 4.28875 2.77375 4.4375 3.6875 C4.78566972 5.73783281 5.17385313 7.78233909 5.625 9.8125 C5.74875 10.534375 5.8725 11.25625 6 12 C5 13 5 13 2.4375 13.0625 C1.633125 13.041875 0.82875 13.02125 0 13 C0.99 12.34 1.98 11.68 3 11 C2.505 9.9275 2.01 8.855 1.5 7.75 C0.11346089 4.74583192 0 3.54065105 0 0 Z " fill="#DC80BF" transform="translate(51,77)"/>
<path d="M0 0 C0 0.99 0 1.98 0 3 C-2.80915474 4.40457737 -4.88810534 4.24895157 -8 4 C-10.375 2.5 -10.375 2.5 -12 1 C-8.0186217 -0.3271261 -4.14954773 -0.06915913 0 0 Z " fill="#D05F76" transform="translate(109,87)"/>
<path d="M0 0 C2.31567384 3.47351075 2.59587577 4.91399472 2 9 C-0.5 10.875 -0.5 10.875 -3 12 C-3 11.34 -3 10.68 -3 10 C-5.64 10 -8.28 10 -11 10 C-11 9.67 -11 9.34 -11 9 C-9.576875 8.814375 -9.576875 8.814375 -8.125 8.625 C-4.91332809 8.28312823 -4.91332809 8.28312823 -3 6 C-2.01 6.33 -1.02 6.66 0 7 C0 4.69 0 2.38 0 0 Z " fill="#DD8C9D" transform="translate(112,77)"/>
<path d="M0 0 C-0.33 0.66 -0.66 1.32 -1 2 C-1.99 2 -2.98 2 -4 2 C-4.12375 3.134375 -4.2475 4.26875 -4.375 5.4375 C-4.58125 6.613125 -4.7875 7.78875 -5 9 C-5.99 9.495 -5.99 9.495 -7 10 C-7 6.7 -7 3.4 -7 0 C-4.3333581 -1.33332095 -2.83319697 -0.67102033 0 0 Z " fill="#BF2342" transform="translate(138,73)"/>
<path d="M0 0 C0.144375 0.639375 0.28875 1.27875 0.4375 1.9375 C0.81007181 3.97545146 0.81007181 3.97545146 2 5 C2.35897436 11.46153846 2.35897436 11.46153846 0 15 C-0.68177416 16.32567199 -1.35191436 17.65753688 -2 19 C-2.21432579 12.35590042 -1.51233701 6.46794133 0 0 Z " fill="#F2BCBB" transform="translate(35,25)"/>
<path d="M0 0 C0.33 2.97 0.66 5.94 1 9 C1.99 9.33 2.98 9.66 4 10 C5.1875 12.0625 5.1875 12.0625 6 14 C3.5625 13.3125 3.5625 13.3125 1 12 C0.1875 9.375 0.1875 9.375 0 7 C-1.32 6.67 -2.64 6.34 -4 6 C-3.625 3.5625 -3.625 3.5625 -3 1 C-1 0 -1 0 0 0 Z " fill="#E57A82" transform="translate(55,24)"/>
<path d="M0 0 C0.66 0.33 1.32 0.66 2 1 C0.61122646 4.35620271 -0.91677965 6.07298728 -4 8 C-4.66 8 -5.32 8 -6 8 C-6.66 8.99 -7.32 9.98 -8 11 C-7.67 8.69 -7.34 6.38 -7 4 C-5.824375 3.566875 -5.824375 3.566875 -4.625 3.125 C-1.90328368 2.15087746 -1.90328368 2.15087746 0 0 Z " fill="#F3BEA5" transform="translate(44,14)"/>
<path d="M0 0 C0.33 0 0.66 0 1 0 C1.33 3.3 1.66 6.6 2 10 C0.68 8.35 -0.64 6.7 -2 5 C-1.34 3.35 -0.68 1.7 0 0 Z M-6 2 C-5.855625 2.61875 -5.71125 3.2375 -5.5625 3.875 C-5.06847775 6.03258322 -5.06847775 6.03258322 -4 8 C-4.66 8.66 -5.32 9.32 -6 10 C-6.66 9.67 -7.32 9.34 -8 9 C-7.34 6.69 -6.68 4.38 -6 2 Z " fill="#F6CDBA" transform="translate(46,9)"/>
<path d="M0 0 C0.66 0 1.32 0 2 0 C2 1.32 2 2.64 2 4 C2.66 4 3.32 4 4 4 C5.2890625 5.53125 5.2890625 5.53125 6.625 7.5 C7.07101563 8.1496875 7.51703125 8.799375 7.9765625 9.46875 C8.48316406 10.22671875 8.48316406 10.22671875 9 11 C8.401875 10.690625 7.80375 10.38125 7.1875 10.0625 C4.91043228 8.89790296 4.91043228 8.89790296 2 8 C1.34 8.66 0.68 9.32 0 10 C0 6.7 0 3.4 0 0 Z " fill="#E05676" transform="translate(35,41)"/>
<path d="M0 0 C1.485 0.99 1.485 0.99 3 2 C3 2.99 3 3.98 3 5 C3.66 5 4.32 5 5 5 C5 7.31 5 9.62 5 12 C4.34 12 3.68 12 3 12 C2.67 12.66 2.34 13.32 2 14 C1.93941406 13.24074219 1.87882813 12.48148438 1.81640625 11.69921875 C1.73261719 10.70535156 1.64882812 9.71148437 1.5625 8.6875 C1.48128906 7.70136719 1.40007812 6.71523438 1.31640625 5.69921875 C1.08187441 2.90624401 1.08187441 2.90624401 0 0 Z " fill="#E5A7B3" transform="translate(128,42)"/>
<path d="M0 0 C0.33 0.66 0.66 1.32 1 2 C-0.65 2 -2.3 2 -4 2 C-4.33 2.99 -4.66 3.98 -5 5 C-6.65 5 -8.3 5 -10 5 C-9.1875 3.0625 -9.1875 3.0625 -8 1 C-5.07175348 0.02391783 -3.04386724 -0.08226668 0 0 Z " fill="#C8435E" transform="translate(105,73)"/>
<path d="M0 0 C0.99 0.33 1.98 0.66 3 1 C3.6875 3.0625 3.6875 3.0625 4 5 C3.071875 5.309375 3.071875 5.309375 2.125 5.625 C-0.84653645 7.54775888 -1.13024659 9.66594527 -2 13 C-3.18771723 9.57056481 -2.80226223 7.62215325 -1.5625 4.25 C-1.27503906 3.45078125 -0.98757812 2.6515625 -0.69140625 1.828125 C-0.46324219 1.22484375 -0.23507812 0.6215625 0 0 Z " fill="#F4C8C1" transform="translate(13,13)"/>
<path d="M0 0 C2.50298434 2.93828597 3.46930939 5.17902761 4 9 C3.34 8.67 2.68 8.34 2 8 C2 7.34 2 6.68 2 6 C1.34 6 0.68 6 0 6 C-0.33 6.66 -0.66 7.32 -1 8 C-1.66 7.67 -2.32 7.34 -3 7 C-3 6.01 -3 5.02 -3 4 C-2.34 4 -1.68 4 -1 4 C-0.67 2.68 -0.34 1.36 0 0 Z " fill="#DC889A" transform="translate(178,73)"/>
<path d="M0 0 C0.66 0.33 1.32 0.66 2 1 C2 2.32 2 3.64 2 5 C1.34 5 0.68 5 0 5 C0 5.99 0 6.98 0 8 C-0.66 8 -1.32 8 -2 8 C-2 5.69 -2 3.38 -2 1 C-1.34 0.67 -0.68 0.34 0 0 Z " fill="#CF5D75" transform="translate(96,77)"/>
<path d="M0 0 C0.33 0.66 0.66 1.32 1 2 C1.804375 2.144375 2.60875 2.28875 3.4375 2.4375 C6 3 6 3 8 6 C3.25 5.125 3.25 5.125 1 4 C0.67 5.32 0.34 6.64 0 8 C0 5.36 0 2.72 0 0 Z " fill="#DF5375" transform="translate(51,35)"/>
<path d="M0 0 C1.32 0 2.64 0 4 0 C3.67 1.65 3.34 3.3 3 5 C1.35 5.33 -0.3 5.66 -2 6 C-1.34 4.02 -0.68 2.04 0 0 Z " fill="#D46B80" transform="translate(174,72)"/>
<path d="M0 0 C1.32 0.66 2.64 1.32 4 2 C3.67 3.32 3.34 4.64 3 6 C1.68 6 0.36 6 -1 6 C-0.67 4.02 -0.34 2.04 0 0 Z " fill="#DA8193" transform="translate(168,85)"/>
<path d="M0 0 C0.66 0 1.32 0 2 0 C3.125 4.75 3.125 4.75 2 7 C1.01 7 0.02 7 -1 7 C-0.67 4.69 -0.34 2.38 0 0 Z " fill="#C22C4B" transform="translate(79,83)"/>
<path d="M0 0 C1.65 0.33 3.3 0.66 5 1 C4.34 2.32 3.68 3.64 3 5 C1.02 5 -0.96 5 -3 5 C-3 4.34 -3 3.68 -3 3 C-2.01 2.34 -1.02 1.68 0 1 C0 0.67 0 0.34 0 0 Z " fill="#DC8899" transform="translate(137,72)"/>
<path d="M0 0 C0.33 0 0.66 0 1 0 C1 1.98 1 3.96 1 6 C1.66 6 2.32 6 3 6 C3 7.98 3 9.96 3 12 C0.17216424 8.80331609 -0.63139654 6.23893982 -1 2 C-0.67 1.34 -0.34 0.68 0 0 Z " fill="#EB8FAC" transform="translate(11,50)"/>
<path d="M0 0 C0.33 0.66 0.66 1.32 1 2 C1.66 2 2.32 2 3 2 C3.33 3.65 3.66 5.3 4 7 C2.35 6.67 0.7 6.34 -1 6 C-1.042721 4.33388095 -1.04063832 2.66617115 -1 1 C-0.67 0.67 -0.34 0.34 0 0 Z " fill="#E36A7C" transform="translate(52,29)"/>
<path d="M0 0 C2.5654594 2.5654594 2.54046087 4.47686668 3 8 C1.35 7.67 -0.3 7.34 -2 7 C-2 6.34 -2 5.68 -2 5 C-1.34 4.67 -0.68 4.34 0 4 C0 2.68 0 1.36 0 0 Z " fill="#D8788C" transform="translate(182,82)"/>
<path d="M0 0 C2.125 0.375 2.125 0.375 4 1 C3.01 1.66 2.02 2.32 1 3 C-0.19232613 5.05003955 -0.19232613 5.05003955 -1 7 C-1.66 6.67 -2.32 6.34 -3 6 C-2.42655063 3.13275314 -2.1385485 2.1385485 0 0 Z " fill="#BF2444" transform="translate(118,73)"/>
<path d="M0 0 C-0.25 2.375 -0.25 2.375 -1 5 C-3.0625 6.3125 -3.0625 6.3125 -5 7 C-4.625 4.0625 -4.625 4.0625 -4 1 C-2 0 -2 0 0 0 Z " fill="#F4C9C4" transform="translate(46,4)"/>
<path d="M0 0 C2.4375 1.1875 2.4375 1.1875 5 3 C5.8125 5.6875 5.8125 5.6875 6 8 C5.01 7.34 4.02 6.68 3 6 C2.01 6.495 2.01 6.495 1 7 C0.67 4.69 0.34 2.38 0 0 Z " fill="#E198B8" transform="translate(53,50)"/>
<path d="M0 0 C1.32 0.33 2.64 0.66 4 1 C4 2.98 4 4.96 4 7 C3.01 6.67 2.02 6.34 1 6 C0.67 4.02 0.34 2.04 0 0 Z " fill="#E6A3D1" transform="translate(51,77)"/>
<path d="M0 0 C1.32 0 2.64 0 4 0 C3.75 2.375 3.75 2.375 3 5 C0.9375 6.3125 0.9375 6.3125 -1 7 C-0.649375 6.21625 -0.29875 5.4325 0.0625 4.625 C0.371875 3.75875 0.68125 2.8925 1 2 C0.67 1.34 0.34 0.68 0 0 Z " fill="#F6D0BF" transform="translate(60,0)"/>
<path d="M0 0 C1.4800841 0.11362262 2.95910074 0.24122908 4.4375 0.375 C5.26121094 0.44460937 6.08492188 0.51421875 6.93359375 0.5859375 C7.95646484 0.79089844 7.95646484 0.79089844 9 1 C9.33 1.66 9.66 2.32 10 3 C7.03 3 4.06 3 1 3 C0.67 2.01 0.34 1.02 0 0 Z " fill="#BF2343" transform="translate(116,86)"/>
<path d="M0 0 C0.99 0 1.98 0 3 0 C3 2.31 3 4.62 3 7 C2.01 6.67 1.02 6.34 0 6 C0 4.02 0 2.04 0 0 Z " fill="#BE2141" transform="translate(109,77)"/>
<path d="M0 0 C0.66 0 1.32 0 2 0 C3.35439668 2.70879335 3.06501451 5.00933268 3 8 C1 7 1 7 -0.125 3.9375 C-0.41375 2.968125 -0.7025 1.99875 -1 1 C-0.67 0.67 -0.34 0.34 0 0 Z " fill="#BE2142" transform="translate(140,74)"/>
<path d="M0 0 C3 1 3 1 3 1 Z " fill="#FEFFFD" transform="translate(47,90)"/>
<path d="M0 0 C0.33 0.66 0.66 1.32 1 2 C0.34 1.67 -0.32 1.34 -1 1 C-0.67 0.67 -0.34 0.34 0 0 Z " fill="#FEFEFE" transform="translate(110,89)"/>
<path d="M0 0 C0.66 0.66 1.32 1.32 2 2 C1.34 2 0.68 2 0 2 C0 1.34 0 0.68 0 0 Z " fill="#FEFFFD" transform="translate(17,70)"/>
<path d="M0 0 C0.66 0.66 1.32 1.32 2 2 C1.34 2 0.68 2 0 2 C0 1.34 0 0.68 0 0 Z " fill="#FEFEFE" transform="translate(240,62)"/>
<path d="M0 0 C3 1 3 1 3 1 Z " fill="#FEFFFE" transform="translate(218,63)"/>
<path d="" fill="#FEFFFD" transform="translate(0,0)"/>
<path d="M0 0 C0.66 0 1.32 0 2 0 C1.67 0.66 1.34 1.32 1 2 C0.67 1.34 0.34 0.68 0 0 Z " fill="#FEFEFD" transform="translate(155,40)"/>
<path d="M0 0 C0.99 0.495 0.99 0.495 2 1 C1.01 1.495 1.01 1.495 0 2 C0 1.34 0 0.68 0 0 Z " fill="#FEFEFD" transform="translate(207,37)"/>
<path d="M0 0 C0.66 0 1.32 0 2 0 C1.67 0.66 1.34 1.32 1 2 C0.67 1.34 0.34 0.68 0 0 Z " fill="#FDFEFD" transform="translate(107,37)"/>
<path d="" fill="#FDFFFE" transform="translate(0,0)"/>
<path d="M0 0 C2 1 2 1 2 1 Z " fill="#FEFFFD" transform="translate(39,87)"/>
<path d="" fill="#FEFFFD" transform="translate(0,0)"/>
<path d="" fill="#FEFEFC" transform="translate(0,0)"/>
<path d="" fill="#FFFEFD" transform="translate(0,0)"/>
<path d="" fill="#FEFFFF" transform="translate(0,0)"/>
<path d="M0 0 C2 1 2 1 2 1 Z " fill="#FFFFFD" transform="translate(121,77)"/>
<path d="" fill="#FEFFFE" transform="translate(0,0)"/>
<path d="" fill="#FEFFFD" transform="translate(0,0)"/>
<path d="M0 0 C2 1 2 1 2 1 Z " fill="#FEFFFD" transform="translate(149,63)"/>
<path d="" fill="#FFFFFC" transform="translate(0,0)"/>
<path d="" fill="#FEFFFD" transform="translate(0,0)"/>
<path d="" fill="#FFFFFF" transform="translate(0,0)"/>
<path d="" fill="#FFFFFD" transform="translate(0,0)"/>
<path d="" fill="#FEFEFC" transform="translate(0,0)"/>
<path d="" fill="#FDFEFE" transform="translate(0,0)"/>
<path d="" fill="#FEFFFD" transform="translate(0,0)"/>
<path d="" fill="#FEFFFD" transform="translate(0,0)"/>
<path d="" fill="#FEFFFD" transform="translate(0,0)"/>
<path d="M0 0 C2 1 2 1 2 1 Z " fill="#FEFFFE" transform="translate(150,37)"/>
<path d="M0 0 C2 1 2 1 2 1 Z " fill="#FEFEFE" transform="translate(125,37)"/>
<path d="" fill="#FFFFFD" transform="translate(0,0)"/>
<path d="" fill="#FEFEFD" transform="translate(0,0)"/>
<path d="" fill="#FFFEFD" transform="translate(0,0)"/>
<path d="" fill="#FFFFFD" transform="translate(0,0)"/>
<path d="" fill="#FEFEFE" transform="translate(0,0)"/>
<path d="" fill="#FFFFFF" transform="translate(0,0)"/>
<path d="" fill="#FFFFFD" transform="translate(0,0)"/>
<path d="" fill="#FFFFFF" transform="translate(0,0)"/>
<path d="" fill="#FEFFFC" transform="translate(0,0)"/>
<path d="" fill="#FFFFFD" transform="translate(0,0)"/>
<path d="" fill="#FEFFFD" transform="translate(0,0)"/>
<path d="" fill="#FFFFFD" transform="translate(0,0)"/>
<path d="" fill="#FEFFFD" transform="translate(0,0)"/>
<path d="" fill="#FFFEFC" transform="translate(0,0)"/>
<path d="" fill="#FDFEFF" transform="translate(0,0)"/>
<path d="" fill="#FEFFFD" transform="translate(0,0)"/>
<path d="" fill="#FFFFFF" transform="translate(0,0)"/>
<path d="" fill="#FEFFFD" transform="translate(0,0)"/>
<path d="" fill="#FEFFFC" transform="translate(0,0)"/>
<path d="" fill="#FEFEFE" transform="translate(0,0)"/>
<path d="" fill="#FDFFFF" transform="translate(0,0)"/>
<path d="" fill="#FEFFFF" transform="translate(0,0)"/>
<path d="" fill="#FDFFFE" transform="translate(0,0)"/>
<path d="" fill="#FEFFFF" transform="translate(0,0)"/>
<path d="" fill="#FEFFFE" transform="translate(0,0)"/>
<path d="" fill="#FFFFFF" transform="translate(0,0)"/>
<path d="" fill="#FFFFFD" transform="translate(0,0)"/>
<path d="" fill="#FFFFFD" transform="translate(0,0)"/>
<path d="" fill="#FEFFFD" transform="translate(0,0)"/>
<path d="" fill="#FFFFFD" transform="translate(0,0)"/>
<path d="" fill="#FDFEFE" transform="translate(0,0)"/>
<path d="" fill="#FFFFFD" transform="translate(0,0)"/>
<path d="" fill="#FFFFFE" transform="translate(0,0)"/>
<path d="" fill="#FFFFFB" transform="translate(0,0)"/>
<path d="" fill="#FFFFFD" transform="translate(0,0)"/>
<path d="" fill="#FDFFFD" transform="translate(0,0)"/>
<path d="" fill="#FFFEFB" transform="translate(0,0)"/>
<path d="" fill="#FEFEFC" transform="translate(0,0)"/>
<path d="" fill="#FDFFFD" transform="translate(0,0)"/>
<path d="" fill="#FEFFFD" transform="translate(0,0)"/>
<path d="" fill="#FEFEFD" transform="translate(0,0)"/>
<path d="" fill="#FEFFFC" transform="translate(0,0)"/>
<path d="" fill="#FFFFFD" transform="translate(0,0)"/>
<path d="" fill="#FFFDFE" transform="translate(0,0)"/>
<path d="" fill="#FFFFFE" transform="translate(0,0)"/>
<path d="" fill="#FFFFFF" transform="translate(0,0)"/>
<path d="" fill="#FEFFFC" transform="translate(0,0)"/>
<path d="" fill="#FFFFFF" transform="translate(0,0)"/>
<path d="" fill="#FEFFFD" transform="translate(0,0)"/>
<path d="" fill="#FEFFFD" transform="translate(0,0)"/>
<path d="" fill="#FEFFFD" transform="translate(0,0)"/>
<path d="" fill="#FEFFFE" transform="translate(0,0)"/>
<path d="" fill="#FFFFFD" transform="translate(0,0)"/>
<path d="" fill="#FFFFFE" transform="translate(0,0)"/>
<path d="" fill="#FFFFFD" transform="translate(0,0)"/>
<path d="" fill="#FFFFFD" transform="translate(0,0)"/>
<path d="" fill="#FEFFFD" transform="translate(0,0)"/>
<path d="" fill="#FEFFFD" transform="translate(0,0)"/>
<path d="" fill="#FFFFFD" transform="translate(0,0)"/>
<path d="" fill="#FFFFFF" transform="translate(0,0)"/>
<path d="" fill="#FEFFFF" transform="translate(0,0)"/>
<path d="" fill="#FFFEFD" transform="translate(0,0)"/>
<path d="" fill="#FFFFFE" transform="translate(0,0)"/>
<path d="" fill="#FEFEFE" transform="translate(0,0)"/>
<path d="" fill="#FEFFFE" transform="translate(0,0)"/>
<path d="" fill="#FEFFFD" transform="translate(0,0)"/>
<path d="" fill="#FEFFFE" transform="translate(0,0)"/>
<path d="" fill="#FEFEFD" transform="translate(0,0)"/>
<path d="" fill="#FEFFFE" transform="translate(0,0)"/>
<path d="" fill="#FFFFFD" transform="translate(0,0)"/>
<path d="" fill="#FFFFFD" transform="translate(0,0)"/>
<path d="" fill="#FFFFFD" transform="translate(0,0)"/>
<path d="" fill="#FFFFFD" transform="translate(0,0)"/>
<path d="" fill="#FFFFFD" transform="translate(0,0)"/>
<path d="" fill="#FEFFFD" transform="translate(0,0)"/>
<path d="" fill="#FFFEFE" transform="translate(0,0)"/>
<path d="" fill="#FEFFFC" transform="translate(0,0)"/>
<path d="" fill="#FFFFFD" transform="translate(0,0)"/>
</svg>
